# xmcd CD database file
#
# Track frame offsets:
#	150
#	16640
#	29882
#	47761
#	60029
#	77142
#	89446
#	103576
#	117751
#	131254
#	142244
#	159147
#
# Disc length: 2317 seconds
#
# Revision: 4
# Processed by: cddbd v1.5.2PL0 Copyright (c) Steve Scherf et al.
# Submitted via: CDex 1.51
#
DISCID=8f090b0c
DTITLE=Vìra Martinová - Køidel se nezøíkám
DYEAR=2010
DGENRE=Country
TTITLE0=Køidel se nezøíkám
TTITLE1=Sedmý pád
TTITLE2=Strádám
TTITLE3=Hvìzda
TTITLE4=Jako biè
TTITLE5=Muzikant
TTITLE6=Jsi
TTITLE7=Do plamenù
TTITLE8=To se nìkdy stává
TTITLE9=Vypùjèená
TTITLE10=Ta chvíle
TTITLE11=Jen pár slov
EXTD=YEAR: 2010
EXTT0=
EXTT1=
EXTT2=
EXTT3=
EXTT4=
EXTT5=
EXTT6=
EXTT7=
EXTT8=
EXTT9=
EXTT10=
EXTT11=
PLAYORDER=
